<svg xmlns="http://www.w3.org/2000/svg" viewBox="0 0 720 540" role="img" aria-labelledby="title desc">
  <title id="title">웹 포트폴리오 프로필 일러스트</title>
  <desc id="desc">노트북 앞에서 HTML CSS JavaScript 포트폴리오를 만드는 개발자</desc>
  <rect width="720" height="540" rx="36" fill="#f6f7f3"/>
  <rect x="58" y="68" width="604" height="404" rx="30" fill="#ffffff" stroke="#d8dfda" stroke-width="6"/>
  <circle cx="584" cy="126" r="54" fill="#f3c34f"/>
  <rect x="100" y="118" width="330" height="226" rx="20" fill="#17211f"/>
  <rect x="128" y="148" width="274" height="142" rx="12" fill="#eef5f2"/>
  <rect x="154" y="176" width="96" height="12" rx="6" fill="#166f68"/>
  <rect x="154" y="206" width="196" height="10" rx="5" fill="#aebdb8"/>
  <rect x="154" y="232" width="154" height="10" rx="5" fill="#d8dfda"/>
  <rect x="154" y="258" width="210" height="10" rx="5" fill="#d95d39"/>
  <rect x="150" y="344" width="230" height="34" rx="10" fill="#101413"/>
  <path d="M210 378h110l28 46H182z" fill="#33423f"/>
  <rect x="154" y="424" width="220" height="22" rx="11" fill="#17211f"/>
  <circle cx="512" cy="218" r="56" fill="#f1b39d"/>
  <path d="M450 216c8-48 50-82 96-82 48 0 84 34 86 82-26-24-58-30-94-18-32 10-58 10-88 18z" fill="#273330"/>
  <circle cx="490" cy="220" r="7" fill="#17211f"/>
  <circle cx="536" cy="220" r="7" fill="#17211f"/>
  <path d="M492 250c18 16 44 16 62 0" fill="none" stroke="#17211f" stroke-width="9" stroke-linecap="round"/>
  <path d="M422 354c18-58 54-88 102-88s84 30 102 88v80H422z" fill="#166f68"/>
  <path d="M460 354c18 28 48 42 82 42 26 0 52-10 72-28v66H460z" fill="#0f514c" opacity=".72"/>
  <rect x="460" y="410" width="126" height="20" rx="10" fill="#d95d39"/>
  <path d="M92 458c110 30 234 42 374 34 64-4 120-14 168-28" fill="none" stroke="#aebdb8" stroke-width="10" stroke-linecap="round"/>
</svg>
